<?xml version="1.0" encoding="UTF-8"?>
<svg width="681px" height="96px" viewBox="0 0 681 96" version="1.1" xmlns="http://www.w3.org/2000/svg" xmlns:xlink="http://www.w3.org/1999/xlink">
    <!-- Generator: Sketch 54.1 (76490) - https://sketchapp.com -->
    <title>Untitled 7</title>
    <desc>Created with Sketch.</desc>
    <g id="Page-1" stroke="none" stroke-width="1" fill="none" fill-rule="evenodd">
        <g id="Text" transform="translate(132.074219, 14.500000)" fill-rule="nonzero">
            <path d="M8.7890625,7.10542736e-15 C11.0351675,7.10542736e-15 14.6809644,2.86455469 19.7265625,8.59375 L33.203125,21.875 C47.1029341,7.94263867 54.2643208,0.9765625 54.6875,0.9765625 C55.8919331,0.325517578 56.8684858,7.10542736e-15 57.6171875,7.10542736e-15 L59.5703125,7.10542736e-15 C62.4674624,7.10542736e-15 64.7460854,2.01820898 66.40625,6.0546875 L66.40625,59.5703125 C66.40625,62.5000146 64.3229375,64.7786377 60.15625,66.40625 L57.6171875,66.40625 C55.5989482,66.40625 53.6458428,65.1041797 51.7578125,62.5 C50.9765586,61.3606714 50.5859375,59.3424624 50.5859375,56.4453125 L50.5859375,27.1484375 C41.6991743,36.1328574 36.8815142,40.625 36.1328125,40.625 L33.7890625,41.015625 L32.6171875,41.015625 C30.0455601,41.015625 26.7252808,38.6067949 22.65625,33.7890625 L15.8203125,27.1484375 L15.8203125,27.5390625 L15.625,60.15625 C13.9973877,64.3229375 11.7187646,66.40625 8.7890625,66.40625 L6.8359375,66.40625 C3.90623535,66.40625 1.6276123,64.3229375 0,60.15625 L0,6.8359375 C0,3.97133984 2.01820898,1.6927168 6.0546875,7.10542736e-15 L8.7890625,7.10542736e-15 Z M109.375,7.10542736e-15 C113.151061,7.10542736e-15 116.210926,3.19007227 118.554688,9.5703125 C133.528721,38.8347817 141.47135,54.5898325 142.382812,56.8359375 L142.382812,59.1796875 C142.382812,61.0026133 140.625018,63.2161328 137.109375,65.8203125 L134.960938,66.40625 L133.789062,66.40625 C130.468733,66.40625 127.799489,63.8672129 125.78125,58.7890625 L123.632812,54.6875 L94.53125,54.6875 C91.5038911,61.8489941 89.2903716,65.4296875 87.890625,65.4296875 C87.3046846,66.0807324 86.2630283,66.40625 84.765625,66.40625 L83.203125,66.40625 C80.7942588,66.40625 78.5807393,64.6484551 76.5625,61.1328125 L76.171875,59.375 L76.171875,57.6171875 C76.171875,56.6080679 79.2968437,49.8373022 85.546875,37.3046875 C93.6849365,20.0194448 99.4791494,8.49612256 102.929688,2.734375 C104.492195,1.07421045 106.119783,0.16276123 107.8125,7.10542736e-15 L109.375,7.10542736e-15 Z M102.539062,38.8671875 L115.429688,38.8671875 L108.984375,25.78125 C107.910151,27.3763101 105.761735,31.7382456 102.539062,38.8671875 Z M175.195312,7.10542736e-15 C183.789105,7.10542736e-15 191.796838,3.97131445 199.21875,11.9140625 C204.2969,18.5872729 206.835938,25.162728 206.835938,31.640625 L206.835938,34.765625 C206.835938,43.359418 202.864623,51.3671504 194.921875,58.7890625 C188.248665,63.8672129 181.673209,66.40625 175.195312,66.40625 L158.984375,66.40625 C156.054673,66.40625 153.77605,64.3229375 152.148438,60.15625 L152.148438,6.8359375 C152.148438,3.90623535 154.23175,1.6276123 158.398438,7.10542736e-15 L175.195312,7.10542736e-15 Z M167.96875,15.625 L167.96875,34.1796875 L167.773438,50.78125 C175.813842,50.78125 180.696606,49.9349043 182.421875,48.2421875 C188.15107,44.5312314 191.015625,39.7786748 191.015625,33.984375 L191.015625,32.421875 C191.015625,25.6835601 187.304725,20.4752788 179.882812,16.796875 C177.832021,16.0156211 174.511742,15.625 169.921875,15.625 L167.96875,15.625 Z M256.640625,7.10542736e-15 C259.570327,7.10542736e-15 261.84895,2.0833125 263.476562,6.25 L263.476562,8.7890625 C263.476562,11.7187646 261.39325,13.9973877 257.226562,15.625 L240.429688,15.8203125 L232.421875,15.8203125 L232.421875,25.390625 L252.734375,25.390625 C255.664077,25.390625 257.9427,27.4739375 259.570312,31.640625 L259.570312,34.1796875 C259.570312,37.1093896 257.487,39.3880127 253.320312,41.015625 L249.21875,41.2109375 L232.421875,41.2109375 L232.421875,50.78125 L251.953125,50.5859375 L253.125,50.5859375 C258.431016,50.5859375 261.621088,52.1484219 262.695312,55.2734375 C262.988283,55.2734375 263.248697,56.0546797 263.476562,57.6171875 L263.476562,59.5703125 C263.476562,62.5000146 261.39325,64.7786377 257.226562,66.40625 L223.4375,66.40625 C220.507798,66.40625 218.229175,64.3229375 216.601562,60.15625 L216.601562,6.8359375 C216.601562,3.90623535 218.684875,1.6276123 222.851562,7.10542736e-15 L256.640625,7.10542736e-15 Z" id="MADE" fill="#FFFFFF"></path>
            <path d="M338.085938,7.10542736e-15 C341.01564,7.10542736e-15 343.294263,2.0833125 344.921875,6.25 L344.921875,8.7890625 C344.921875,11.7187646 342.838562,13.9973877 338.671875,15.625 L321.875,15.8203125 L313.867188,15.8203125 L313.867188,25.390625 L334.179688,25.390625 C337.10939,25.390625 339.388013,27.4739375 341.015625,31.640625 L341.015625,34.1796875 C341.015625,37.1093896 338.932313,39.3880127 334.765625,41.015625 L330.664062,41.2109375 L313.867188,41.2109375 L313.867188,50.78125 L333.398438,50.5859375 L334.570312,50.5859375 C339.876329,50.5859375 343.066401,52.1484219 344.140625,55.2734375 C344.433595,55.2734375 344.694009,56.0546797 344.921875,57.6171875 L344.921875,59.5703125 C344.921875,62.5000146 342.838562,64.7786377 338.671875,66.40625 L304.882812,66.40625 C301.95311,66.40625 299.674487,64.3229375 298.046875,60.15625 L298.046875,6.8359375 C298.046875,3.90623535 300.130187,1.6276123 304.296875,7.10542736e-15 L338.085938,7.10542736e-15 Z M387.890625,7.10542736e-15 C391.666686,7.10542736e-15 394.726551,3.19007227 397.070312,9.5703125 C412.044346,38.8347817 419.986975,54.5898325 420.898438,56.8359375 L420.898438,59.1796875 C420.898438,61.0026133 419.140643,63.2161328 415.625,65.8203125 L413.476562,66.40625 L412.304688,66.40625 C408.984358,66.40625 406.315114,63.8672129 404.296875,58.7890625 L402.148438,54.6875 L373.046875,54.6875 C370.019516,61.8489941 367.805997,65.4296875 366.40625,65.4296875 C365.82031,66.0807324 364.778653,66.40625 363.28125,66.40625 L361.71875,66.40625 C359.309884,66.40625 357.096364,64.6484551 355.078125,61.1328125 L354.6875,59.375 L354.6875,57.6171875 C354.6875,56.6080679 357.812469,49.8373022 364.0625,37.3046875 C372.200562,20.0194448 377.994774,8.49612256 381.445312,2.734375 C383.00782,1.07421045 384.635408,0.16276123 386.328125,7.10542736e-15 L387.890625,7.10542736e-15 Z M381.054688,38.8671875 L393.945312,38.8671875 L387.5,25.78125 C386.425776,27.3763101 384.27736,31.7382456 381.054688,38.8671875 Z M449.609375,7.10542736e-15 L452.929688,7.10542736e-15 C460.286495,7.10542736e-15 465.104155,1.95310547 467.382812,5.859375 C467.903648,7.16146484 468.164062,8.26822461 468.164062,9.1796875 L468.164062,9.765625 C468.164062,13.1836108 465.950543,15.852855 461.523438,17.7734375 L459.570312,18.1640625 C458.854163,18.1640625 456.054712,17.3828203 451.171875,15.8203125 L449.804688,15.8203125 C447.591135,16.2109395 446.484375,17.3176992 446.484375,19.140625 L446.484375,19.921875 C446.484375,21.8099053 450.651,24.0234248 458.984375,26.5625 C467.447959,30.0455903 471.679688,35.7746997 471.679688,43.75 L471.679688,45.703125 C471.679688,53.6784253 467.447959,59.9934663 458.984375,64.6484375 C456.184882,65.8203184 453.515638,66.40625 450.976562,66.40625 L449.21875,66.40625 C443.749973,66.40625 438.476588,64.518248 433.398438,60.7421875 C431.705721,59.0820229 430.794271,57.3893315 430.664062,55.6640625 L430.664062,53.7109375 C430.664062,50.7486831 432.877582,48.339853 437.304688,46.484375 L439.257812,46.484375 C440.071619,46.484375 443.261691,47.8515488 448.828125,50.5859375 L450.585938,50.5859375 C452.962251,50.5859375 454.720046,48.9583496 455.859375,45.703125 L455.859375,44.140625 C455.859375,40.6575347 451.627646,38.1836011 443.164062,36.71875 C434.830688,33.7564956 430.664062,28.3529038 430.664062,20.5078125 L430.664062,18.9453125 C430.664062,11.7838184 434.374963,6.05470898 441.796875,1.7578125 C444.498711,0.585931641 447.102852,7.10542736e-15 449.609375,7.10542736e-15 Z M490.234375,7.10542736e-15 C492.447928,7.10542736e-15 495.898414,2.66924414 500.585938,8.0078125 L514.648438,21.875 C528.580799,7.94263867 535.742186,0.9765625 536.132812,0.9765625 C537.337246,0.325517578 538.313798,7.10542736e-15 539.0625,7.10542736e-15 L541.015625,7.10542736e-15 C543.945327,7.10542736e-15 546.22395,2.0833125 547.851562,6.25 L547.851562,8.7890625 C547.851562,10.970063 545.442732,14.1601353 540.625,18.359375 L522.460938,36.71875 L522.460938,59.5703125 C522.460938,62.5000146 520.377625,64.7786377 516.210938,66.40625 L513.671875,66.40625 C511.653636,66.40625 509.70053,65.1041797 507.8125,62.5 C507.031246,61.3606714 506.640625,59.3424624 506.640625,56.4453125 L506.640625,36.5234375 C490.494711,20.3775234 482.421875,12.109377 482.421875,11.71875 C481.77083,10.5143169 481.445312,9.53776416 481.445312,8.7890625 L481.445312,6.8359375 C481.445312,3.90623535 483.528625,1.6276123 487.695312,7.10542736e-15 L490.234375,7.10542736e-15 Z" id="EASY" fill="#D0021B"></path>
        </g>
        <g id="Logo">
            <path d="M5.89781684,64.021945 C11.5124686,63.8128037 16,59.1951324 16,53.529342 C16,47.7303521 11.2989899,43.029342 5.5,43.029342 C4.63624821,43.029342 3.79685587,43.1336372 2.99372931,43.3303213 L0,22 L42,42 L85,22 L81.9411825,43.7940746 C80.7242425,43.3009302 79.3938376,43.029342 78,43.029342 C72.2010101,43.029342 67.5,47.7303521 67.5,53.529342 C67.5,59.3283319 72.2010101,64.029342 78,64.029342 C78.3746642,64.029342 78.7447451,64.0097187 79.109271,63.971444 L77,79 L42,96 L8,79 L5.89781684,64.021945 Z" id="Combined-Shape" fill="#D8D8D8"></path>
            <path d="M20.8330654,26.3786664 C20.6141252,25.1186397 20.5,23.8226476 20.5,22.5 C20.5,10.0735931 30.5735931,0 43,0 C55.4264069,0 65.5,10.0735931 65.5,22.5 C65.5,23.6905259 65.4075364,24.8594557 65.2293986,26 L65,26 L42,36 L20.8330603,26.3786638 Z" id="Combined-Shape" fill="#D0021B"></path>
        </g>
    </g>
</svg>